PathFileType	4	(X/Y/Z)	C:/Users/beibeiliu/ov580/test_trc/User2\sequence.4_training_dense_left.trc
DataRate	CameraRate	NumFrames	NumMarkers	Units	OrigDataRate	OrigDataStartFrame	OrigNumFrames
120	120	17	19	mm	120	25	49
Frame#	Time	ThumbCMC			ThumbMCP			ThumbIP			ThumbTip			IndexMCP			IndexPIP			IndexTip			MiddleMCP			MiddlePIP			MiddleTip			RingMCP			RingPIP			RingTip			PinkyMCP			PinkyPIP			PinkyTip			BackHand1			BackHand2			BackHand3	
		X0	Y0	Z0	X1	Y1	Z1	X2	Y2	Z2	X3	Y3	Z3	X4	Y4	Z4	X5	Y5	Z5	X6	Y6	Z6	X7	Y7	Z7	X8	Y8	Z8	X9	Y9	Z9	X10	Y10	Z10	X11	Y11	Z11	X12	Y12	Z12	X13	Y13	Z13	X14	Y14	Z14	X15	Y15	Z15	X16	Y16	Z16	X17	Y17	Z17	X18	Y18	Z18	
24	0.2	-347.698	6.22736	10.3496	-339.976	5.76124	-26.2014	-337.019	0.561286	-55.7004	-336.851	-19.8593	-79.5453	-374.396	-29.076	-56.6233	-347.04	-25.132	-70.0187	-340.326	-11.9649	-35.8324	-360.239	-51.026	-55.4763	-327.319	-39.7149	-60.9658	-332.033	-26.4868	-19.4671	-337.18	-65.0676	-48.3147	-312.992	-45.2644	-46.9584	-320.057	-34.374	-13.581	-324.374	-72.0952	-35.4676	-303.7	-49.6029	-28.4919	-319.196	-37.3565	-1.44376	-366.233	-63.7326	11.4886	-356.15	-59.3446	44.1453	-371.955	-30.3859	25.8401	
25	0.208333	-342.489	5.36855	12.9806	-338.503	9.94618	-24.6501	-344.425	5.24101	-60.9653	-352.288	-16.5603	-79.9986	-387.524	-16.1243	-54.1725	-358.657	-18.1076	-66.4691	-348.431	-8.7655	-33.5233	-382.098	-37.8225	-54.9408	-346.909	-34.4004	-61.9333	-342.864	-24.2739	-22.4844	-364.887	-59.0146	-48.6101	-333.047	-48.5137	-45.9058	-337.12	-36.4009	-10.5892	-355.395	-68.7251	-36.4277	-326.912	-53.5029	-30.0342	-334.538	-41.9184	-0.972187	-383.325	-53.7616	17.356	-371.669	-45.0038	45.6978	-377.427	-15.5722	27.5319	
26	0.216667	-337.663	10.9423	12.6295	-336.49	13.6328	-23.6863	-346.536	9.49994	-55.7505	-360.345	-8.40504	-71.5561	-389.864	9.23827	-45.916	-369.361	-7.4864	-64.9411	-350.49	-5.3625	-35.0649	-393.849	-20.3915	-49.9065	-362.675	-25.0885	-61.8948	-346.035	-20.1513	-26.3299	-384.002	-38.9153	-47.7128	-351.889	-40.8322	-48.1257	-347.887	-28.3344	-12.736	-380.026	-59.3378	-34.065	-347.413	-49.378	-32.1703	-345.29	-39.3628	-3.05405	-396.451	-36.3261	16.6296	-378.321	-37.8676	51.7894	-375.934	-0.962761	30.3406	
27	0.225	-327.186	6.85053	18.1295	-320.636	14.8602	-17.4733	-333.92	20.818	-53.7003	-354.045	10.7379	-72.7394	-377.838	27.4954	-38.871	-358.902	11.3101	-62.28	-345.431	0.979906	-31.1316	-387.073	8.36998	-47.6013	-363.275	-14.2072	-60.0933	-343.58	-12.7817	-22.1647	-389.935	-18.7108	-44.0907	-359.083	-31.7762	-46.8378	-350.414	-27.1494	-14.618	-392.283	-38.782	-34.5668	-360.618	-42.4827	-36.4462	-354.059	-35.4936	-4.53863	-392.504	-11.9563	20.4732	-378.769	-25.3557	51.5684	-367.142	9.97448	32.5605	
28	0.233333	-309.698	6.10349	20.8339	-305.294	9.53988	-9.84628	-310.307	21.5149	-44.4852	-328.854	22.3024	-65.098	-349.354	46.2992	-36.4702	-342.11	26.5004	-58.5189	-330.097	8.57307	-24.9932	-365.066	32.6585	-39.8163	-349.574	3.742	-59.1271	-339.631	-10.8014	-26.1757	-375.794	7.23304	-44.1511	-354.027	-14.6249	-48.3757	-345.827	-16.6192	-14.9683	-386.625	-7.83379	-33.7906	-360.647	-30.0261	-36.6019	-353.418	-28.1431	-4.65044	-384.793	10.2763	21.0679	-371.241	-8.44005	54.5628	-348.046	19.437	39.5861	
29	0.241667	-295.814	-2.08401	25.2426	-289.908	7.00412	-7.51235	-283.396	20.0578	-40.6734	-301.573	28.4925	-64.891	-320.292	53.6968	-30.865	-315.929	34.6416	-57.4348	-309.108	11.3456	-27.923	-342.939	46.0928	-40.2402	-334.814	16.5004	-59.3848	-325.62	-3.91604	-24.0004	-356.77	26.7952	-42.0784	-345.628	-0.395758	-49.7803	-340.756	-9.939	-16.1055	-370.58	14.5517	-32.9918	-354.005	-14.1596	-40.3894	-347.207	-17.1506	-8.53162	-360.505	25.2952	25.3601	-358.113	5.45147	51.7806	-326.606	24.2044	41.5014	
30	0.25	-287.037	-1.58379	23.6055	-271.883	3.94552	-8.42916	-272.077	12.361	-38.8704	-285.47	24.2091	-63.8735	-294.541	52.8726	-37.5637	-299.893	33.4318	-59.3862	-298.929	7.45313	-28.3612	-322.651	47.8195	-39.6543	-321.207	16.8572	-61.1282	-317.804	-3.65955	-27.9309	-340.506	33.2543	-45.7437	-335.881	2.09111	-51.1558	-325.847	-2.84832	-16.9996	-357.138	21.524	-36.6374	-346.556	-7.23882	-42.6263	-338.262	-12.9592	-7.16866	-348.381	36.006	21.8948	-346.827	13.6956	51.8525	-312.23	27.7809	39.1458	
31	0.258333	-273.302	-4.00374	24.9024	-258.157	-4.3002	-9.39977	-258.983	2.13128	-40.3467	-268.647	10.0403	-68.8356	-284.402	42.1009	-45.3009	-284.418	18.3458	-63.9412	-284.4	-1.68092	-32.163	-306.991	37.183	-50.7258	-306.853	3.94323	-61.4448	-301.146	-11.1663	-24.7577	-330.466	24.3542	-47.1911	-323.806	-3.66296	-53.5495	-315.759	-7.62448	-16.6255	-347.873	15.4258	-36.8126	-335.886	-17.5037	-38.6868	-328.219	-16.0623	-8.8075	-333.007	36.6016	17.4097	-331.195	18.2742	49.6074	-293.997	28.7164	32.7477	
32	0.266667	-263.413	-6.2987	24.8046	-250.719	-13.7412	-5.84958	-247.83	-15.2738	-41.5504	-264.214	-12.4246	-66.0818	-273.11	24.3846	-47.3792	-277.798	-5.17363	-62.7577	-277.936	-15.3729	-27.7074	-300.906	17.5362	-51.95	-299.358	-18.1005	-59.0448	-291.644	-22.401	-19.302	-318.621	4.90458	-49.4678	-314.928	-25.6345	-47.4329	-306.718	-19.4058	-11.8542	-338.783	-4.85576	-37.3771	-321.719	-31.8654	-29.4798	-316.708	-19.7601	1.64934	-324.945	31.0744	9.8887	-321.802	19.6542	46.1758	-291.079	25.7006	28.2727	
33	0.275	-253.19	-10.2537	29.4132	-241.532	-23.7229	-1.97012	-241.181	-32.0527	-38.8175	-256.153	-36.7542	-58.4836	-270.698	1.55527	-48.9414	-271.434	-29.501	-56.0034	-269.1	-29.1726	-19.1797	-291.208	-8.5566	-53.048	-288.77	-42.207	-48.1851	-282.915	-36.2078	-9.78833	-308.993	-22.544	-45.8672	-303.215	-47.915	-33.8566	-297.584	-29.7804	-0.847412	-327.765	-31.1177	-33.5478	-310.539	-49.2865	-14.4421	-308.883	-32.2444	12.5463	-316.075	19.4549	5.03927	-316.87	17.6737	39.1218	-284.819	22.5298	23.6408	
34	0.283333	-248.985	-12.3074	32.8956	-231.731	-31.6273	6.19264	-231.203	-45.601	-25.5011	-248.597	-54.384	-48.239	-260.463	-14.9986	-45.7847	-259.659	-48.682	-43.0306	-260.535	-41.5616	-11.2469	-281.434	-29.3447	-49.3977	-275.979	-60.5484	-33.2313	-272.088	-40.0557	1.66821	-300.942	-42.7656	-38.1858	-286.128	-64.3567	-18.5213	-287.113	-38.6335	8.8174	-318.139	-46.3395	-23.6287	-297.474	-62.8293	0.24821	-296.99	-36.6238	19.5475	-311.68	6.34738	2.91831	-314.49	10.0766	40.7743	-282.432	15.3414	21.0561	
35	0.291667	-242.137	-12.138	37.9508	-225.056	-32.1208	10.2734	-221.61	-50.6727	-15.769	-236.766	-66.0435	-36.0919	-249.714	-27.9034	-42.6421	-241.313	-59.5369	-31.7889	-247.231	-46.7554	-2.36316	-273.35	-46.1393	-42.317	-259.298	-70.629	-21.7167	-259.708	-46.9918	9.78178	-287.997	-59.4092	-28.9477	-272.187	-74.715	-4.14883	-274.808	-47.0518	16.4979	-301.025	-66.4552	-15.6359	-283.278	-70.9013	13.2469	-289.33	-45.755	28.7193	-309.756	-6.54377	0.100963	-313.885	3.07528	36.7902	-279.192	8.38442	21.8613	
36	0.3	-238.83	-8.14541	39.6291	-218.757	-29.1466	16.9885	-209.027	-50.266	-6.07785	-217.063	-71.8424	-28.7924	-243.153	-38.5667	-35.9165	-231.079	-64.8743	-25.9958	-239.495	-48.3963	5.99967	-259.739	-54.4054	-34.6012	-242.024	-76.8855	-13.7932	-252.69	-52.2215	17.5081	-273.586	-69.495	-19.9023	-256.878	-81.6803	3.61779	-264.394	-47.6727	24.2054	-283.438	-76.5981	-5.40274	-267.71	-75.5284	21.5426	-279.39	-48.3775	36.7652	-306.647	-21.4187	4.24288	-311.436	-6.53187	34.553	-278.582	2.77484	20.2418	
37	0.308333	-240.818	-3.60892	37.4961	-214.35	-19.9868	18.2198	-198.427	-40.1667	-0.125243	-200.264	-65.1591	-20.0091	-231.746	-43.9981	-32.8086	-215.285	-61.9138	-15.6023	-226.371	-40.5471	10.7444	-248.718	-60.3691	-27.6125	-226.662	-76.7464	-4.3295	-241.636	-51.5428	22.5074	-257.202	-77.8064	-11.8405	-236.385	-78.4473	15.0156	-256.378	-50.1471	31.8069	-270.694	-84.8826	1.3228	-251.903	-79.9715	30.7383	-261.771	-52.4149	40.9099	-297.966	-31.3391	7.11179	-312.688	-20.1684	35.5902	-277.39	-0.386452	16.4999	
38	0.316667	-248.927	3.7637	33.5612	-214.789	-2.12673	17.1726	-193.016	-19.9846	-3.94553	-190.843	-46.6239	-14.4626	-228.733	-35.3461	-32.3206	-201.881	-45.9524	-15.0355	-222.276	-30.9987	10.5291	-233.656	-55.5479	-26.9174	-209.461	-64.9859	-0.70897	-232.832	-40.9301	24.5569	-235.54	-74.0507	-8.08627	-218.378	-70.0833	18.0595	-241.953	-46.1249	32.7885	-246.051	-83.7183	8.75485	-232.331	-72.6327	36.2033	-256.356	-47.3271	45.8979	-292.553	-46.976	9.09103	-306.638	-29.562	34.651	-283.726	-5.48733	13.6889	
39	0.325	-261.555	9.39294	27.0191	-231.18	11.8908	11.3285	-201.665	0.635157	-12.6674	-190	-27.2815	-22.8527	-224.277	-29.9445	-35.578	-199.708	-28.7751	-21.1767	-223.528	-13.9207	5.69721	-222.72	-52.8135	-25.1833	-199.34	-44.2327	0.0850437	-224.689	-29.4155	23.204	-221.041	-62.6017	-6.3049	-206.235	-50.1937	19.3627	-238.583	-35.7182	32.9375	-224.032	-73.7938	13.9766	-217.861	-52.9838	38.0612	-249.112	-41.1914	43.2724	-284.229	-53.5989	9.21824	-301.816	-44.4594	37.1563	-289.896	-13.1452	12.7085	
40	0.333333	-275.187	17.9071	17.5009	-247.928	24.0474	-1.49577	-219.61	21.5435	-23.6647	-197.73	1.20662	-32.1725	-228.598	-19.9629	-40.547	-206.2	-6.24295	-26.5093	-229.306	-0.865231	-0.222621	-219.252	-36.8314	-27.3106	-197.807	-18.8728	-6.76132	-228.865	-6.17399	15.6334	-211.047	-45.9076	-5.60921	-200.977	-23.851	14.7854	-238.45	-19.4768	26.3578	-213.528	-53.4521	11.861	-210.844	-29.601	35.9689	-244.016	-26.0371	40.2924	-270.728	-59.7796	11.5612	-293.788	-49.3019	39.623	-293.767	-23.5095	11.0638	
